<svg id="brand" xmlns="http://www.w3.org/2000/svg" viewBox="0 0 648 181">
    <title>floid</title>
    <path class="brand_color"
          d="M317.772 10.488c-8.164 0-11.111.011-19.274.011-5.48 0-8.688 6.607-8.634 10.72 0 48.985-.002 87.545-.002 136.532 0 5.651 3.805 11.2 9.155 11.2 8.507 0 10.658-.211 19.165-.211 4.167-.151 7.943-5.615 7.996-11.042 0-48.437.003-88.056.003-136.49 0-5.302-3.509-10.72-8.409-10.72m84.039 74.154c8.174-.304 13.392 1.513 15.646 5.44 2.258 3.93 3.24 11.773 2.961 23.521.279 11.742-.706 19.546-2.961 23.414-2.255 3.865-7.473 5.645-15.646 5.337-8.5.308-13.969-1.472-16.416-5.337-2.442-3.868-3.527-11.672-3.247-23.414-.28-11.747.805-19.591 3.247-23.521 2.447-3.927 7.916-5.745 16.416-5.44zm-.638-27.869c-15.248-.14-26.887 1.409-34.911 4.639-8.025 3.231-13.482 8.988-16.364 17.266-2.886 8.281-4.248 19.922-4.07 34.925-.158 14.667 1.263 26.139 4.255 34.4 2.992 8.266 8.512 14.065 16.557 17.398 8.04 3.335 19.554 4.938 34.534 4.821 15.189.142 26.81-1.367 34.879-4.539 8.063-3.173 13.567-8.88 16.516-17.119 2.943-8.241 4.333-19.895 4.168-34.962.175-15.47-1.186-27.329-4.075-35.579-2.893-8.253-8.363-13.9-16.423-16.94-8.058-3.037-19.746-4.475-35.066-4.31zm100.051-46.274h-18.973c-5.583-.014-8.979 3.214-8.97 7.793v12.564c.029 3.425 1.295 7.506 7.317 7.506h21.459c5.004.015 7.544-2.371 7.544-7.452V18.818c-.019-5.641-1.829-8.319-8.377-8.319zm1.214 47.554c-8.575 0-14.21-.01-22.785-.01-4.396-.027-6.373 3.479-6.373 7.524 0 33.34.002 58.83.002 92.167.054 5.688 3.932 11.217 8.087 11.217 6.859 0 12.532-.044 19.396-.044 4.479-.002 8.887-5.52 8.859-10.964 0-32.038-.021-60.544-.021-92.581-.001-4.215-2.814-7.285-7.165-7.309zm59.15 55.55c-.107-7.281.155-13.039.783-17.282.632-4.24 2.27-7.257 4.919-9.057 2.651-1.8 6.952-2.673 12.907-2.622 6.301-.045 10.85.863 13.647 2.715 2.803 1.854 4.532 4.904 5.196 9.151.661 4.248.934 9.949.822 17.095.034 8.273-.555 14.486-1.764 18.634s-3.255 6.899-6.133 8.25c-2.875 1.357-6.802 1.977-11.77 1.867-5.021.146-8.884-.332-11.589-1.444-2.705-1.104-4.563-3.712-5.576-7.826-1.009-4.114-1.496-10.607-1.442-19.481zm67.343-103.104h-22.076c-5.909 0-7.096 3.698-6.991 10.586v50.124c0 2.239-.132 2.666-1.693 2.666-3.041-6.995-7.267-11.64-12.659-13.933-5.396-2.295-11.468-3.351-18.211-3.168-15.059-.14-25.864 3.521-32.421 10.982-6.556 7.462-9.757 19.575-9.611 36.333v25.368c.076 14.547 3.729 25.008 10.957 31.392 7.229 6.383 17.588 9.509 31.075 9.375 7.993.185 14.736-1.144 20.218-3.989 5.485-2.847 9.316-8.345 11.499-16.491 1.642 0 1.679.207 1.63 1.331-.168 3.96-.132 3.079-.307 7.018-.007 5.379 6.296 10.887 8.97 10.859h17.565c3.527 0 9.308-4.741 9.308-10.429V20.93c-.001-7.908-1.651-10.431-7.253-10.431zM9.28 136.701c0-7.834 6.351-14.183 14.185-14.183h19.354c7.832 0 14.18 6.349 14.18 14.183v19.354c0 7.828-6.348 14.183-14.18 14.183H23.465c-7.834 0-14.185-6.354-14.185-14.183v-19.354zm51.573-37.505H28.944c-10.417-.747-18.756-8.991-19.664-19.362v-2.152c0-11.747 9.524-21.274 21.273-21.274h99.271c11.749 0 21.272 9.527 21.272 21.274v70.911c0 11.745-9.524 21.271-21.272 21.271H99.747c-10.706-.553-19.32-9.03-20.094-19.678v-30.842c0-11.125-8.419-20.148-18.8-20.148zm206.484-41.158c-5.515 0-7.5.005-13.015.005-4.405 0-5.037-.762-5.037-5.162-.314-6.815.466-10.238 2.262-12.558 1.794-2.319 6.55-3.394 14.263-3.229 1.169.009 2.322.101 3.462.293 3.097.074 3.302-1.645 3.302-6.156V16.345c0-4.526-1.856-5.871-6.378-5.871-13.847 0-22.713.956-30.563 2.888-8.663 2.125-14.639 5.894-17.929 11.308-3.289 5.414-4.854 12.943-4.692 22.582.002 2.689.002 4.029.002 6.719 0 3.438-1.15 4.071-4.537 4.071-2.64 0-1.959.01-4.599.01-3.182 0-5.448 2.621-5.448 5.82v14.955c0 2.777 3.32 5.814 6.072 5.814h4.275c3.425 0 4.237.937 4.237 4.362.001 25.319.152 42.954.028 68.662-.022 4.354 3.323 11.171 9.082 11.171 8.414.005 10.893-.097 18.064-.102 5.528-.005 8.822-7.123 8.769-11.079-.324-23.069.37-45.053.37-68.121 0-4.621.458-4.92 4.981-4.893 5 0 7.285-.051 12.286-.051 5.064 0 7.332-2.866 7.332-6.713 0-5.479.057-6.872.057-12.352-.053-4.89-2.141-7.487-6.646-7.487z"/>
</svg>
